<svg width="600" height="200" viewBox="0 0 600 200" xmlns="http://www.w3.org/2000/svg">
    <!-- Dialog box with Islamic geometric patterns -->

    <!-- Main dialog background -->
    <rect x="0" y="0" width="600" height="200" fill="#2C3E50" rx="10"/>
    <rect x="4" y="4" width="592" height="192" fill="#34495E" rx="8"/>
    <rect x="8" y="8" width="584" height="184" fill="#2C3E50" rx="6"/>

    <!-- Islamic geometric border pattern -->
    <rect x="12" y="12" width="576" height="4" fill="#3498DB"/>
    <rect x="12" y="184" width="576" height="4" fill="#3498DB"/>
    <rect x="12" y="12" width="4" height="176" fill="#3498DB"/>
    <rect x="584" y="12" width="4" height="176" fill="#3498DB"/>

    <!-- Geometric corner decorations -->
    <rect x="16" y="16" width="8" height="8" fill="#F39C12"/>
    <rect x="18" y="18" width="4" height="4" fill="#E67E22"/>

    <rect x="576" y="16" width="8" height="8" fill="#F39C12"/>
    <rect x="578" y="18" width="4" height="4" fill="#E67E22"/>

    <rect x="16" y="176" width="8" height="8" fill="#F39C12"/>
    <rect x="18" y="178" width="4" height="4" fill="#E67E22"/>

    <rect x="576" y="176" width="8" height="8" fill="#F39C12"/>
    <rect x="578" y="178" width="4" height="4" fill="#E67E22"/>

    <!-- Decorative Islamic pattern along top -->
    <rect x="32" y="16" width="4" height="4" fill="#E74C3C"/>
    <rect x="40" y="16" width="4" height="4" fill="#FFFFFF"/>
    <rect x="48" y="16" width="4" height="4" fill="#E74C3C"/>
    <rect x="56" y="16" width="4" height="4" fill="#FFFFFF"/>
    <rect x="64" y="16" width="4" height="4" fill="#E74C3C"/>

    <rect x="532" y="16" width="4" height="4" fill="#E74C3C"/>
    <rect x="540" y="16" width="4" height="4" fill="#FFFFFF"/>
    <rect x="548" y="16" width="4" height="4" fill="#E74C3C"/>
    <rect x="556" y="16" width="4" height="4" fill="#FFFFFF"/>
    <rect x="564" y="16" width="4" height="4" fill="#E74C3C"/>

    <!-- Central decorative element -->
    <rect x="288" y="12" width="24" height="8" fill="#F39C12"/>
    <rect x="290" y="14" width="20" height="4" fill="#E67E22"/>
    <rect x="296" y="16" width="8" height="2" fill="#D35400"/>

    <!-- Side decorative patterns -->
    <rect x="20" y="32" width="2" height="136" fill="#3498DB"/>
    <rect x="24" y="36" width="2" height="128" fill="#2980B9"/>

    <rect x="578" y="32" width="2" height="136" fill="#3498DB"/>
    <rect x="574" y="36" width="2" height="128" fill="#2980B9"/>

    <!-- Small geometric elements -->
    <rect x="28" y="40" width="4" height="4" fill="#27AE60"/>
    <rect x="28" y="48" width="4" height="4" fill="#2ECC71"/>
    <rect x="28" y="56" width="4" height="4" fill="#27AE60"/>
    <rect x="28" y="64" width="4" height="4" fill="#2ECC71"/>
    <rect x="28" y="72" width="4" height="4" fill="#27AE60"/>

    <rect x="568" y="40" width="4" height="4" fill="#27AE60"/>
    <rect x="568" y="48" width="4" height="4" fill="#2ECC71"/>
    <rect x="568" y="56" width="4" height="4" fill="#27AE60"/>
    <rect x="568" y="64" width="4" height="4" fill="#2ECC71"/>
    <rect x="568" y="72" width="4" height="4" fill="#27AE60"/>

    <!-- Bottom decorative border -->
    <rect x="32" y="180" width="4" height="4" fill="#E74C3C"/>
    <rect x="40" y="180" width="4" height="4" fill="#FFFFFF"/>
    <rect x="48" y="180" width="4" height="4" fill="#E74C3C"/>
    <rect x="56" y="180" width="4" height="4" fill="#FFFFFF"/>
    <rect x="64" y="180" width="4" height="4" fill="#E74C3C"/>

    <rect x="532" y="180" width="4" height="4" fill="#E74C3C"/>
    <rect x="540" y="180" width="4" height="4" fill="#FFFFFF"/>
    <rect x="548" y="180" width="4" height="4" fill="#E74C3C"/>
    <rect x="556" y="180" width="4" height="4" fill="#FFFFFF"/>
    <rect x="564" y="180" width="4" height="4" fill="#E74C3C"/>

    <!-- Text area background -->
    <rect x="40" y="32" width="520" height="136" fill="rgba(52, 73, 94, 0.3)" rx="4"/>

    <!-- Speech bubble pointer (optional - can be positioned via CSS) -->
    <polygon points="280,200 300,210 320,200" fill="#2C3E50"/>

    <!-- Subtle pattern overlay -->
    <rect x="45" y="37" width="2" height="2" fill="rgba(243, 156, 18, 0.1)"/>
    <rect x="50" y="40" width="2" height="2" fill="rgba(243, 156, 18, 0.1)"/>
    <rect x="55" y="37" width="2" height="2" fill="rgba(243, 156, 18, 0.1)"/>
    <rect x="60" y="40" width="2" height="2" fill="rgba(243, 156, 18, 0.1)"/>

    <rect x="540" y="37" width="2" height="2" fill="rgba(243, 156, 18, 0.1)"/>
    <rect x="545" y="40" width="2" height="2" fill="rgba(243, 156, 18, 0.1)"/>
    <rect x="550" y="37" width="2" height="2" fill="rgba(243, 156, 18, 0.1)"/>
    <rect x="555" y="40" width="2" height="2" fill="rgba(243, 156, 18, 0.1)"/>
</svg>
