<svg width="48" height="48" viewBox="0 0 48 48" xmlns="http://www.w3.org/2000/svg">
    <!-- Player character - Food detective with Bahraini elements -->

    <!-- Hair/Head covering -->
    <rect x="16" y="8" width="16" height="8" fill="#8B4513"/>
    <rect x="12" y="12" width="8" height="4" fill="#8B4513"/>
    <rect x="28" y="12" width="8" height="4" fill="#8B4513"/>

    <!-- Face -->
    <rect x="16" y="16" width="16" height="12" fill="#DEB887"/>

    <!-- Eyes -->
    <rect x="18" y="18" width="2" height="2" fill="#000"/>
    <rect x="28" y="18" width="2" height="2" fill="#000"/>

    <!-- Nose -->
    <rect x="23" y="22" width="2" height="2" fill="#CD853F"/>

    <!-- Mouth -->
    <rect x="22" y="24" width="4" height="2" fill="#8B0000"/>

    <!-- Detective coat (traditional style) -->
    <rect x="14" y="28" width="20" height="16" fill="#4A4A4A"/>
    <rect x="16" y="30" width="16" height="2" fill="#FF0000"/> <!-- Red accent (Bahrain flag) -->

    <!-- Arms -->
    <rect x="10" y="30" width="4" height="8" fill="#DEB887"/>
    <rect x="34" y="30" width="4" height="8" fill="#DEB887"/>

    <!-- Detective badge -->
    <rect x="26" y="32" width="4" height="4" fill="#FFD700"/>
    <rect x="27" y="33" width="2" height="2" fill="#FF0000"/>

    <!-- Legs -->
    <rect x="16" y="44" width="6" height="4" fill="#000080"/>
    <rect x="26" y="44" width="6" height="4" fill="#000080"/>

    <!-- Magnifying glass (detective tool) -->
    <rect x="6" y="26" width="2" height="8" fill="#8B4513"/>
    <rect x="4" y="24" width="6" height="6" fill="none" stroke="#C0C0C0" stroke-width="2"/>
    <rect x="5" y="25" width="4" height="4" fill="rgba(173,216,230,0.3)"/>
</svg>
