<svg width="800" height="600" viewBox="0 0 800 600" xmlns="http://www.w3.org/2000/svg">
    <!-- Bahraini Town Map Background -->

    <!-- Sky gradient -->
    <defs>
        <linearGradient id="skyGradient" x1="0%" y1="0%" x2="0%" y2="100%">
            <stop offset="0%" style="stop-color:#87CEEB;stop-opacity:1" />
            <stop offset="100%" style="stop-color:#E0F6FF;stop-opacity:1" />
        </linearGradient>
        <linearGradient id="groundGradient" x1="0%" y1="0%" x2="0%" y2="100%">
            <stop offset="0%" style="stop-color:#F4A460;stop-opacity:1" />
            <stop offset="100%" style="stop-color:#DEB887;stop-opacity:1" />
        </linearGradient>
    </defs>

    <!-- Sky -->
    <rect x="0" y="0" width="800" height="400" fill="url(#skyGradient)"/>

    <!-- Ground -->
    <rect x="0" y="400" width="800" height="200" fill="url(#groundGradient)"/>

    <!-- Desert dunes in background -->
    <ellipse cx="100" cy="380" rx="120" ry="40" fill="#F5DEB3"/>
    <ellipse cx="300" cy="390" rx="100" ry="35" fill="#F5DEB3"/>
    <ellipse cx="500" cy="385" rx="140" ry="45" fill="#F5DEB3"/>
    <ellipse cx="700" cy="375" rx="110" ry="38" fill="#F5DEB3"/>

    <!-- Palm trees (iconic to Bahrain) -->
    <!-- Palm tree 1 -->
    <rect x="80" y="320" width="8" height="80" fill="#8B4513"/>
    <rect x="76" y="300" width="16" height="20" fill="#228B22"/>
    <rect x="72" y="290" width="8" height="15" fill="#32CD32"/>
    <rect x="96" y="290" width="8" height="15" fill="#32CD32"/>
    <rect x="74" y="280" width="12" height="10" fill="#228B22"/>
    <rect x="90" y="280" width="12" height="10" fill="#228B22"/>

    <!-- Palm tree 2 -->
    <rect x="680" y="310" width="8" height="90" fill="#8B4513"/>
    <rect x="676" y="290" width="16" height="20" fill="#228B22"/>
    <rect x="672" y="280" width="8" height="15" fill="#32CD32"/>
    <rect x="696" y="280" width="8" height="15" fill="#32CD32"/>
    <rect x="674" y="270" width="12" height="10" fill="#228B22"/>
    <rect x="690" y="270" width="12" height="10" fill="#228B22"/>

    <!-- Main town square (center) -->
    <rect x="300" y="450" width="200" height="100" fill="#CD853F"/>
    <rect x="310" y="460" width="180" height="80" fill="#DEB887"/>

    <!-- Fountain in town center -->
    <rect x="380" y="480" width="40" height="40" fill="#4169E1"/>
    <rect x="385" y="485" width="30" height="30" fill="#87CEEB"/>
    <rect x="390" y="490" width="20" height="20" fill="#B0E0E6"/>
    <!-- Water jets -->
    <rect x="395" y="470" width="2" height="10" fill="#87CEEB"/>
    <rect x="398" y="468" width="2" height="12" fill="#87CEEB"/>
    <rect x="401" y="470" width="2" height="10" fill="#87CEEB"/>

    <!-- Traditional Bahraini fort walls in background -->
    <rect x="50" y="250" width="100" height="60" fill="#DEB887"/>
    <rect x="60" y="240" width="80" height="10" fill="#CD853F"/>
    <!-- Fort towers -->
    <rect x="45" y="230" width="20" height="80" fill="#DEB887"/>
    <rect x="135" y="230" width="20" height="80" fill="#DEB887"/>
    <!-- Flag on fort -->
    <rect x="48" y="220" width="2" height="20" fill="#8B4513"/>
    <rect x="50" y="220" width="12" height="8" fill="#E74C3C"/>
    <rect x="50" y="228" width="12" height="4" fill="#FFFFFF"/>

    <!-- Roads/pathways -->
    <rect x="0" y="520" width="800" height="20" fill="#696969"/>
    <rect x="0" y="525" width="800" height="10" fill="#2F2F2F"/>
    <!-- Road markings -->
    <rect x="50" y="527" width="20" height="6" fill="#FFFFFF"/>
    <rect x="100" y="527" width="20" height="6" fill="#FFFFFF"/>
    <rect x="150" y="527" width="20" height="6" fill="#FFFFFF"/>
    <rect x="200" y="527" width="20" height="6" fill="#FFFFFF"/>
    <rect x="250" y="527" width="20" height="6" fill="#FFFFFF"/>
    <rect x="300" y="527" width="20" height="6" fill="#FFFFFF"/>
    <rect x="350" y="527" width="20" height="6" fill="#FFFFFF"/>
    <rect x="400" y="527" width="20" height="6" fill="#FFFFFF"/>
    <rect x="450" y="527" width="20" height="6" fill="#FFFFFF"/>
    <rect x="500" y="527" width="20" height="6" fill="#FFFFFF"/>
    <rect x="550" y="527" width="20" height="6" fill="#FFFFFF"/>
    <rect x="600" y="527" width="20" height="6" fill="#FFFFFF"/>
    <rect x="650" y="527" width="20" height="6" fill="#FFFFFF"/>
    <rect x="700" y="527" width="20" height="6" fill="#FFFFFF"/>

    <!-- Vertical road -->
    <rect x="390" y="400" width="20" height="200" fill="#696969"/>
    <rect x="395" y="400" width="10" height="200" fill="#2F2F2F"/>
    <!-- Vertical road markings -->
    <rect x="397" y="420" width="6" height="20" fill="#FFFFFF"/>
    <rect x="397" y="460" width="6" height="20" fill="#FFFFFF"/>
    <rect x="397" y="500" width="6" height="20" fill="#FFFFFF"/>

    <!-- Market stalls -->
    <rect x="520" y="460" width="40" height="30" fill="#8B4513"/>
    <rect x="522" y="450" width="36" height="10" fill="#FF6347"/>
    <rect x="525" y="462" width="30" height="26" fill="#FFFFFF"/>
    <!-- Goods in stall -->
    <rect x="528" y="465" width="6" height="6" fill="#FFD700"/>
    <rect x="536" y="465" width="6" height="6" fill="#32CD32"/>
    <rect x="544" y="465" width="6" height="6" fill="#FF6347"/>
    <rect x="528" y="473" width="6" height="6" fill="#8A2BE2"/>
    <rect x="536" y="473" width="6" height="6" fill="#FF69B4"/>
    <rect x="544" y="473" width="6" height="6" fill="#FFD700"/>

    <rect x="580" y="460" width="40" height="30" fill="#8B4513"/>
    <rect x="582" y="450" width="36" height="10" fill="#32CD32"/>
    <rect x="585" y="462" width="30" height="26" fill="#FFFFFF"/>
    <!-- Spices and goods -->
    <rect x="588" y="465" width="6" height="6" fill="#FF4500"/>
    <rect x="596" y="465" width="6" height="6" fill="#FFD700"/>
    <rect x="604" y="465" width="6" height="6" fill="#8B0000"/>
    <rect x="588" y="473" width="6" height="6" fill="#228B22"/>
    <rect x="596" y="473" width="6" height="6" fill="#4B0082"/>
    <rect x="604" y="473" width="6" height="6" fill="#FF1493"/>

    <!-- Traditional houses -->
    <rect x="120" y="420" width="60" height="40" fill="#F4A460"/>
    <rect x="125" y="415" width="50" height="5" fill="#8B4513"/>
    <rect x="140" y="435" width="12" height="20" fill="#654321"/>
    <rect x="142" y="437" width="8" height="16" fill="#8B4513"/>
    <!-- Windows -->
    <rect x="130" y="430" width="6" height="6" fill="#4169E1"/>
    <rect x="131" y="431" width="4" height="4" fill="#87CEEB"/>
    <rect x="156" y="430" width="6" height="6" fill="#4169E1"/>
    <rect x="157" y="431" width="4" height="4" fill="#87CEEB"/>

    <rect x="200" y="420" width="60" height="40" fill="#F4A460"/>
    <rect x="205" y="415" width="50" height="5" fill="#8B4513"/>
    <rect x="220" y="435" width="12" height="20" fill="#654321"/>
    <rect x="222" y="437" width="8" height="16" fill="#8B4513"/>
    <rect x="210" y="430" width="6" height="6" fill="#4169E1"/>
    <rect x="211" y="431" width="4" height="4" fill="#87CEEB"/>
    <rect x="236" y="430" width="6" height="6" fill="#4169E1"/>
    <rect x="237" y="431" width="4" height="4" fill="#87CEEB"/>

    <!-- Mosque minaret in distance -->
    <rect x="650" y="350" width="12" height="100" fill="#F4A460"/>
    <rect x="646" y="340" width="20" height="10" fill="#8B4513"/>
    <rect x="648" y="330" width="16" height="10" fill="#FFD700"/>
    <rect x="650" y="320" width="12" height="10" fill="#32CD32"/>
    <!-- Crescent moon -->
    <rect x="654" y="315" width="4" height="5" fill="#FFD700"/>
    <rect x="655" y="312" width="2" height="3" fill="#F39C12"/>

    <!-- Street lamps -->
    <rect x="250" y="510" width="4" height="20" fill="#2F2F2F"/>
    <rect x="248" y="505" width="8" height="5" fill="#FFD700"/>
    <rect x="249" y="506" width="6" height="3" fill="#FFFFFF"/>

    <rect x="550" y="510" width="4" height="20" fill="#2F2F2F"/>
    <rect x="548" y="505" width="8" height="5" fill="#FFD700"/>
    <rect x="549" y="506" width="6" height="3" fill="#FFFFFF"/>

    <!-- Decorative Islamic patterns on ground -->
    <rect x="320" y="470" width="4" height="4" fill="#3498DB"/>
    <rect x="326" y="470" width="4" height="4" fill="#E74C3C"/>
    <rect x="332" y="470" width="4" height="4" fill="#F39C12"/>
    <rect x="320" y="476" width="4" height="4" fill="#E74C3C"/>
    <rect x="326" y="476" width="4" height="4" fill="#F39C12"/>
    <rect x="332" y="476" width="4" height="4" fill="#3498DB"/>
    <rect x="320" y="482" width="4" height="4" fill="#F39C12"/>
    <rect x="326" y="482" width="4" height="4" fill="#3498DB"/>
    <rect x="332" y="482" width="4" height="4" fill="#E74C3C"/>

    <rect x="450" y="470" width="4" height="4" fill="#3498DB"/>
    <rect x="456" y="470" width="4" height="4" fill="#E74C3C"/>
    <rect x="462" y="470" width="4" height="4" fill="#F39C12"/>
    <rect x="450" y="476" width="4" height="4" fill="#E74C3C"/>
    <rect x="456" y="476" width="4" height="4" fill="#F39C12"/>
    <rect x="462" y="476" width="4" height="4" fill="#3498DB"/>
    <rect x="450" y="482" width="4" height="4" fill="#F39C12"/>
    <rect x="456" y="482" width="4" height="4" fill="#3498DB"/>
    <rect x="462" y="482" width="4" height="4" fill="#E74C3C"/>

    <!-- Clouds in sky -->
    <ellipse cx="150" cy="80" rx="30" ry="20" fill="#FFFFFF"/>
    <ellipse cx="170" cy="75" rx="25" ry="15" fill="#FFFFFF"/>
    <ellipse cx="130" cy="75" rx="20" ry="12" fill="#FFFFFF"/>

    <ellipse cx="600" cy="60" rx="35" ry="22" fill="#FFFFFF"/>
    <ellipse cx="620" cy="55" rx="28" ry="18" fill="#FFFFFF"/>
    <ellipse cx="580" cy="55" rx="22" ry="14" fill="#FFFFFF"/>

    <!-- Birds in sky -->
    <rect x="250" y="100" width="4" height="1" fill="#2F2F2F"/>
    <rect x="252" y="99" width="2" height="1" fill="#2F2F2F"/>
    <rect x="252" y="101" width="2" height="1" fill="#2F2F2F"/>

    <rect x="280" y="120" width="4" height="1" fill="#2F2F2F"/>
    <rect x="282" y="119" width="2" height="1" fill="#2F2F2F"/>
    <rect x="282" y="121" width="2" height="1" fill="#2F2F2F"/>

    <rect x="320" y="90" width="4" height="1" fill="#2F2F2F"/>
    <rect x="322" y="89" width="2" height="1" fill="#2F2F2F"/>
    <rect x="322" y="91" width="2" height="1" fill="#2F2F2F"/>

    <!-- Traditional wind tower (Bahraini architecture) -->
    <rect x="720" y="360" width="20" height="60" fill="#DEB887"/>
    <rect x="716" y="350" width="28" height="10" fill="#CD853F"/>
    <!-- Wind openings -->
    <rect x="722" y="365" width="4" height="8" fill="#2F2F2F"/>
    <rect x="728" y="365" width="4" height="8" fill="#2F2F2F"/>
    <rect x="734" y="365" width="4" height="8" fill="#2F2F2F"/>
    <rect x="722" y="375" width="4" height="8" fill="#2F2F2F"/>
    <rect x="728" y="375" width="4" height="8" fill="#2F2F2F"/>
    <rect x="734" y="375" width="4" height="8" fill="#2F2F2F"/>

    <!-- Garden/oasis area -->
    <ellipse cx="680" cy="500" rx="60" ry="40" fill="#228B22"/>
    <ellipse cx="670" cy="490" rx="20" ry="15" fill="#32CD32"/>
    <ellipse cx="690" cy="510" rx="25" ry="18" fill="#32CD32"/>
    <!-- Flowers -->
    <rect x="665" y="485" width="2" height="2" fill="#FF69B4"/>
    <rect x="675" y="505" width="2" height="2" fill="#FFD700"/>
    <rect x="695" y="495" width="2" height="2" fill="#FF6347"/>
    <rect x="700" y="515" width="2" height="2" fill="#8A2BE2"/>

    <!-- Parking area -->
    <rect x="100" y="540" width="80" height="40" fill="#2F2F2F"/>
    <rect x="105" y="545" width="70" height="30" fill="#696969"/>
    <!-- Parking lines -->
    <rect x="110" y="545" width="1" height="30" fill="#FFFFFF"/>
    <rect x="125" y="545" width="1" height="30" fill="#FFFFFF"/>
    <rect x="140" y="545" width="1" height="30" fill="#FFFFFF"/>
    <rect x="155" y="545" width="1" height="30" fill="#FFFFFF"/>
    <rect x="170" y="545" width="1" height="30" fill="#FFFFFF"/>
</svg>
