<svg width="48" height="48" viewBox="0 0 48 48" xmlns="http://www.w3.org/2000/svg">
    <!-- Giuseppe - Italian restaurant owner in Bahrain -->

    <!-- Chef's hat -->
    <rect x="14" y="4" width="20" height="12" fill="#FFFFFF"/>
    <rect x="12" y="8" width="24" height="8" fill="#FFFFFF"/>
    <rect x="16" y="6" width="16" height="4" fill="#F5F5F5"/>

    <!-- Hair -->
    <rect x="16" y="14" width="16" height="4" fill="#654321"/>

    <!-- Face -->
    <rect x="16" y="16" width="16" height="12" fill="#FDBCB4"/>

    <!-- Mustache -->
    <rect x="18" y="22" width="12" height="3" fill="#8B4513"/>
    <rect x="20" y="21" width="8" height="1" fill="#8B4513"/>

    <!-- Eyes -->
    <rect x="18" y="18" width="2" height="2" fill="#4B0082"/>
    <rect x="28" y="18" width="2" height="2" fill="#4B0082"/>

    <!-- Nose -->
    <rect x="23" y="20" width="2" height="3" fill="#F4A460"/>

    <!-- Mouth -->
    <rect x="22" y="24" width="4" height="2" fill="#8B0000"/>

    <!-- Chef's coat -->
    <rect x="12" y="28" width="24" height="16" fill="#FFFFFF"/>
    <!-- Double-breasted buttons -->
    <rect x="16" y="30" width="2" height="2" fill="#C0C0C0"/>
    <rect x="16" y="34" width="2" height="2" fill="#C0C0C0"/>
    <rect x="16" y="38" width="2" height="2" fill="#C0C0C0"/>
    <rect x="30" y="30" width="2" height="2" fill="#C0C0C0"/>
    <rect x="30" y="34" width="2" height="2" fill="#C0C0C0"/>
    <rect x="30" y="38" width="2" height="2" fill="#C0C0C0"/>

    <!-- Arms -->
    <rect x="8" y="32" width="4" height="8" fill="#FDBCB4"/>
    <rect x="36" y="32" width="4" height="8" fill="#FDBCB4"/>

    <!-- Chef's apron -->
    <rect x="18" y="32" width="12" height="12" fill="#F0F8FF"/>
    <rect x="20" y="34" width="8" height="1" fill="#FF0000"/> <!-- Italian flag colors -->
    <rect x="20" y="36" width="8" height="1" fill="#FFFFFF"/>
    <rect x="20" y="38" width="8" height="1" fill="#228B22"/>

    <!-- Rolling pin -->
    <rect x="4" y="36" width="2" height="8" fill="#DEB887"/>
    <rect x="2" y="38" width="2" height="4" fill="#8B7355"/>
    <rect x="6" y="38" width="2" height="4" fill="#8B7355"/>

    <!-- Pizza slice (thinking about food) -->
    <rect x="40" y="8" width="6" height="6" fill="#FFD700"/>
    <rect x="41" y="9" width="4" height="4" fill="#FF6347"/>
    <rect x="42" y="10" width="2" height="2" fill="#FFFFFF"/>
</svg>
