<svg width="64" height="64" viewBox="0 0 64 64" xmlns="http://www.w3.org/2000/svg">
    <!-- Burger Palace American Restaurant with Bahraini modern architecture -->

    <!-- Modern building base -->
    <rect x="8" y="20" width="48" height="36" fill="#E6E6FA"/>

    <!-- Modern flat roof -->
    <rect x="6" y="16" width="52" height="4" fill="#2F4F4F"/>

    <!-- Glass facade (modern Bahraini style) -->
    <rect x="12" y="24" width="40" height="20" fill="#4169E1"/>
    <rect x="13" y="25" width="38" height="18" fill="#87CEEB"/>

    <!-- Window frames -->
    <rect x="12" y="28" width="40" height="1" fill="#C0C0C0"/>
    <rect x="12" y="32" width="40" height="1" fill="#C0C0C0"/>
    <rect x="12" y="36" width="40" height="1" fill="#C0C0C0"/>
    <rect x="12" y="40" width="40" height="1" fill="#C0C0C0"/>

    <!-- Vertical window dividers -->
    <rect x="24" y="24" width="1" height="20" fill="#C0C0C0"/>
    <rect x="32" y="24" width="1" height="20" fill="#C0C0C0"/>
    <rect x="40" y="24" width="1" height="20" fill="#C0C0C0"/>

    <!-- Main entrance (modern sliding glass) -->
    <rect x="26" y="44" width="12" height="12" fill="#2F4F4F"/>
    <rect x="27" y="45" width="10" height="10" fill="#87CEEB"/>
    <!-- Door handle -->
    <rect x="36" y="50" width="1" height="2" fill="#FFD700"/>

    <!-- American flag colors on building accent -->
    <rect x="8" y="20" width="48" height="1" fill="#FF0000"/>
    <rect x="8" y="21" width="48" height="1" fill="#FFFFFF"/>
    <rect x="8" y="22" width="48" height="1" fill="#0000FF"/>
    <rect x="8" y="23" width="48" height="1" fill="#FFFFFF"/>

    <!-- Bahraini modern decorative elements -->
    <rect x="10" y="18" width="44" height="2" fill="#FFD700"/>
    <rect x="12" y="16" width="2" height="4" fill="#8B0000"/>
    <rect x="16" y="16" width="2" height="4" fill="#8B0000"/>
    <rect x="46" y="16" width="2" height="4" fill="#8B0000"/>
    <rect x="50" y="16" width="2" height="4" fill="#8B0000"/>

    <!-- Neon sign frame -->
    <rect x="16" y="6" width="32" height="10" fill="#2F2F2F"/>
    <rect x="17" y="7" width="30" height="8" fill="#FF1493"/>

    <!-- Burger Palace sign -->
    <rect x="18" y="8" width="28" height="6" fill="#FFFFFF"/>
    <!-- Burger icon in sign -->
    <rect x="20" y="9" width="6" height="4" fill="#8B4513"/> <!-- Bun top -->
    <rect x="21" y="10" width="4" height="1" fill="#228B22"/> <!-- Lettuce -->
    <rect x="21" y="11" width="4" height="1" fill="#8B0000"/> <!-- Patty -->
    <rect x="21" y="12" width="4" height="1" fill="#FFD700"/> <!-- Cheese -->
    <rect x="20" y="13" width="6" height="1" fill="#DEB887"/> <!-- Bun bottom -->

    <!-- "PALACE" text area -->
    <rect x="28" y="9" width="16" height="4" fill="#FF0000"/>
    <rect x="29" y="10" width="14" height="2" fill="#FFFFFF"/>

    <!-- Modern light fixtures -->
    <rect x="14" y="44" width="2" height="4" fill="#C0C0C0"/>
    <rect x="13" y="48" width="4" height="2" fill="#FFD700"/>

    <rect x="48" y="44" width="2" height="4" fill="#C0C0C0"/>
    <rect x="47" y="48" width="4" height="2" fill="#FFD700"/>

    <!-- Air conditioning units (Bahrain necessity) -->
    <rect x="54" y="24" width="4" height="6" fill="#C0C0C0"/>
    <rect x="55" y="22" width="2" height="2" fill="#2F4F4F"/>
    <rect x="54" y="26" width="4" height="1" fill="#4169E1"/> <!-- Cool air -->

    <!-- Drive-thru indicator -->
    <rect x="4" y="32" width="6" height="8" fill="#FF6347"/>
    <rect x="5" y="33" width="4" height="6" fill="#FFFFFF"/>
    <rect x="6" y="34" width="2" height="4" fill="#32CD32"/> <!-- Arrow -->

    <!-- Modern geometric pattern -->
    <rect x="20" y="48" width="2" height="2" fill="#FFD700"/>
    <rect x="24" y="48" width="2" height="2" fill="#8B0000"/>
    <rect x="38" y="48" width="2" height="2" fill="#FFD700"/>
    <rect x="42" y="48" width="2" height="2" fill="#8B0000"/>

    <!-- Ground with modern paving -->
    <rect x="6" y="56" width="52" height="8" fill="#696969"/>
    <rect x="8" y="58" width="48" height="4" fill="#2F2F2F"/>
    <!-- Paving lines -->
    <rect x="16" y="58" width="1" height="4" fill="#C0C0C0"/>
    <rect x="24" y="58" width="1" height="4" fill="#C0C0C0"/>
    <rect x="32" y="58" width="1" height="4" fill="#C0C0C0"/>
    <rect x="40" y="58" width="1" height="4" fill="#C0C0C0"/>
    <rect x="48" y="58" width="1" height="4" fill="#C0C0C0"/>
</svg>
