<svg width="64" height="64" viewBox="0 0 64 64" xmlns="http://www.w3.org/2000/svg">
    <!-- Golden Dragon Chinese Restaurant with Bahraini-Chinese fusion -->

    <!-- Building base -->
    <rect x="8" y="24" width="48" height="32" fill="#F4A460"/> <!-- Sandy beige base -->

    <!-- Chinese pagoda-style roof with Islamic influences -->
    <rect x="6" y="20" width="52" height="4" fill="#8B0000"/>
    <rect x="4" y="16" width="56" height="4" fill="#DC143C"/>
    <rect x="2" y="12" width="60" height="4" fill="#FF0000"/>

    <!-- Upturned eaves -->
    <rect x="0" y="10" width="4" height="2" fill="#FF0000"/>
    <rect x="60" y="10" width="4" height="2" fill="#FF0000"/>
    <rect x="2" y="14" width="4" height="2" fill="#DC143C"/>
    <rect x="58" y="14" width="4" height="2" fill="#DC143C"/>

    <!-- Main entrance with Chinese arch -->
    <rect x="24" y="32" width="16" height="24" fill="#8B4513"/>
    <rect x="26" y="28" width="12" height="4" fill="#FFD700"/>
    <rect x="28" y="24" width="8" height="4" fill="#FFD700"/>

    <!-- Traditional Chinese door -->
    <rect x="28" y="40" width="8" height="16" fill="#8B0000"/>
    <rect x="30" y="42" width="4" height="12" fill="#DC143C"/>
    <!-- Chinese door knockers -->
    <rect x="32" y="46" width="2" height="2" fill="#FFD700"/>
    <rect x="30" y="46" width="2" height="2" fill="#FFD700"/>

    <!-- Chinese lattice windows -->
    <rect x="12" y="32" width="8" height="8" fill="#654321"/>
    <rect x="13" y="33" width="6" height="6" fill="#FF6347"/>
    <!-- Lattice pattern -->
    <rect x="14" y="33" width="4" height="1" fill="#FFD700"/>
    <rect x="14" y="35" width="4" height="1" fill="#FFD700"/>
    <rect x="14" y="37" width="4" height="1" fill="#FFD700"/>
    <rect x="15" y="33" width="1" height="6" fill="#FFD700"/>
    <rect x="17" y="33" width="1" height="6" fill="#FFD700"/>

    <rect x="44" y="32" width="8" height="8" fill="#654321"/>
    <rect x="45" y="33" width="6" height="6" fill="#FF6347"/>
    <rect x="46" y="33" width="4" height="1" fill="#FFD700"/>
    <rect x="46" y="35" width="4" height="1" fill="#FFD700"/>
    <rect x="46" y="37" width="4" height="1" fill="#FFD700"/>
    <rect x="47" y="33" width="1" height="6" fill="#FFD700"/>
    <rect x="49" y="33" width="1" height="6" fill="#FFD700"/>

    <!-- Chinese lanterns -->
    <rect x="16" y="20" width="4" height="8" fill="#FF0000"/>
    <rect x="17" y="18" width="2" height="2" fill="#FFD700"/>
    <rect x="17" y="28" width="2" height="2" fill="#FFD700"/>
    <rect x="15" y="22" width="6" height="4" fill="#DC143C"/>

    <rect x="44" y="20" width="4" height="8" fill="#FF0000"/>
    <rect x="45" y="18" width="2" height="2" fill="#FFD700"/>
    <rect x="45" y="28" width="2" height="2" fill="#FFD700"/>
    <rect x="43" y="22" width="6" height="4" fill="#DC143C"/>

    <!-- Dragon decoration on wall -->
    <rect x="20" y="44" width="8" height="4" fill="#FFD700"/>
    <rect x="21" y="45" width="6" height="2" fill="#FF0000"/>
    <rect x="19" y="46" width="2" height="1" fill="#FF0000"/> <!-- Dragon head -->
    <rect x="28" y="46" width="2" height="1" fill="#FF0000"/> <!-- Dragon tail -->

    <!-- Chinese characters sign -->
    <rect x="20" y="6" width="24" height="6" fill="#FFFFFF"/>
    <rect x="21" y="7" width="22" height="4" fill="#8B0000"/>
    <!-- Chinese character patterns -->
    <rect x="23" y="8" width="2" height="2" fill="#FFD700"/>
    <rect x="27" y="8" width="2" height="2" fill="#FFD700"/>
    <rect x="31" y="8" width="2" height="2" fill="#FFD700"/>
    <rect x="35" y="8" width="2" height="2" fill="#FFD700"/>
    <rect x="39" y="8" width="2" height="2" fill="#FFD700"/>

    <!-- Islamic geometric border -->
    <rect x="8" y="24" width="48" height="2" fill="#FFD700"/>
    <rect x="10" y="26" width="2" height="2" fill="#8B0000"/>
    <rect x="14" y="26" width="2" height="2" fill="#8B0000"/>
    <rect x="18" y="26" width="2" height="2" fill="#8B0000"/>
    <rect x="44" y="26" width="2" height="2" fill="#8B0000"/>
    <rect x="48" y="26" width="2" height="2" fill="#8B0000"/>
    <rect x="52" y="26" width="2" height="2" fill="#8B0000"/>

    <!-- Ground -->
    <rect x="6" y="56" width="52" height="8" fill="#DEB887"/>
    <rect x="8" y="58" width="48" height="4" fill="#CD853F"/>
</svg>
