<svg width="64" height="64" viewBox="0 0 64 64" xmlns="http://www.w3.org/2000/svg">
    <!-- Mama Mia's Italian Restaurant with Bahraini architecture -->

    <!-- Building base -->
    <rect x="8" y="20" width="48" height="36" fill="#F5DEB3"/> <!-- Sand-colored walls -->

    <!-- Islamic arch entrance -->
    <rect x="24" y="32" width="16" height="24" fill="#8B4513"/>
    <!-- Arch top -->
    <rect x="26" y="28" width="12" height="4" fill="#8B4513"/>
    <rect x="28" y="24" width="8" height="4" fill="#8B4513"/>
    <rect x="30" y="20" width="4" height="4" fill="#8B4513"/>

    <!-- Door -->
    <rect x="28" y="40" width="8" height="16" fill="#654321"/>
    <rect x="30" y="42" width="4" height="12" fill="#8B4513"/>
    <!-- Door handle -->
    <rect x="34" y="48" width="1" height="2" fill="#FFD700"/>

    <!-- Windows with Islamic geometric patterns -->
    <rect x="12" y="28" width="8" height="8" fill="#4169E1"/> <!-- Left window -->
    <rect x="13" y="29" width="6" height="6" fill="#87CEEB"/>
    <rect x="14" y="30" width="4" height="1" fill="#FFD700"/> <!-- Geometric pattern -->
    <rect x="15" y="32" width="2" height="1" fill="#FFD700"/>
    <rect x="14" y="34" width="4" height="1" fill="#FFD700"/>

    <rect x="44" y="28" width="8" height="8" fill="#4169E1"/> <!-- Right window -->
    <rect x="45" y="29" width="6" height="6" fill="#87CEEB"/>
    <rect x="46" y="30" width="4" height="1" fill="#FFD700"/>
    <rect x="47" y="32" width="2" height="1" fill="#FFD700"/>
    <rect x="46" y="34" width="4" height="1" fill="#FFD700"/>

    <!-- Flat roof (Bahraini style) -->
    <rect x="6" y="16" width="52" height="4" fill="#8B7355"/>

    <!-- Decorative Islamic trim -->
    <rect x="8" y="20" width="48" height="2" fill="#FFD700"/>
    <rect x="10" y="22" width="44" height="1" fill="#DC143C"/>

    <!-- Italian flag colors on awning -->
    <rect x="20" y="36" width="24" height="2" fill="#228B22"/> <!-- Green -->
    <rect x="20" y="38" width="24" height="2" fill="#FFFFFF"/> <!-- White -->
    <rect x="20" y="40" width="24" height="2" fill="#DC143C"/> <!-- Red -->

    <!-- Sign -->
    <rect x="16" y="8" width="32" height="8" fill="#FFFFFF"/>
    <rect x="17" y="9" width="30" height="6" fill="#FF6347"/>
    <!-- Text area -->
    <rect x="18" y="10" width="28" height="4" fill="#FFFFFF"/>
    <rect x="20" y="11" width="6" height="2" fill="#228B22"/> <!-- "MAMA" -->
    <rect x="28" y="11" width="6" height="2" fill="#DC143C"/> <!-- "MIA'S" -->

    <!-- Pizza oven chimney -->
    <rect x="52" y="8" width="6" height="12" fill="#8B4513"/>
    <rect x="50" y="16" width="10" height="4" fill="#654321"/>
    <!-- Smoke -->
    <rect x="54" y="4" width="2" height="4" fill="#D3D3D3"/>
    <rect x="52" y="0" width="2" height="4" fill="#D3D3D3"/>
    <rect x="56" y="2" width="2" height="4" fill="#D3D3D3"/>

    <!-- Traditional lanterns -->
    <rect x="22" y="24" width="2" height="4" fill="#FFD700"/>
    <rect x="21" y="26" width="4" height="2" fill="#FF6347"/>
    <rect x="40" y="24" width="2" height="4" fill="#FFD700"/>
    <rect x="39" y="26" width="4" height="2" fill="#FF6347"/>

    <!-- Ground/foundation -->
    <rect x="6" y="56" width="52" height="8" fill="#DEB887"/>
    <rect x="8" y="58" width="48" height="4" fill="#CD853F"/>
</svg>
