<svg width="48" height="48" viewBox="0 0 48 48" xmlns="http://www.w3.org/2000/svg">
    <!-- David - Elderly Bahraini man who loves Indian food -->

    <!-- Traditional white ghutra -->
    <rect x="10" y="6" width="28" height="18" fill="#FFFFFF"/>
    <rect x="8" y="10" width="32" height="10" fill="#FFFFFF"/>

    <!-- Black iqal (rope headband) -->
    <rect x="12" y="12" width="24" height="3" fill="#000000"/>
    <rect x="10" y="13" width="28" height="1" fill="#000000"/>

    <!-- Face (older) -->
    <rect x="16" y="16" width="16" height="12" fill="#D2B48C"/>

    <!-- White beard -->
    <rect x="14" y="22" width="20" height="10" fill="#F5F5F5"/>
    <rect x="16" y="24" width="16" height="8" fill="#FFFFFF"/>

    <!-- Eyes with glasses -->
    <rect x="16" y="18" width="6" height="4" fill="#000000"/> <!-- Glasses frame -->
    <rect x="26" y="18" width="6" height="4" fill="#000000"/>
    <rect x="22" y="19" width="4" height="2" fill="#000000"/> <!-- Bridge -->
    <!-- Lens -->
    <rect x="17" y="19" width="4" height="2" fill="rgba(173,216,230,0.5)"/>
    <rect x="27" y="19" width="4" height="2" fill="rgba(173,216,230,0.5)"/>

    <!-- Eyes behind glasses -->
    <rect x="18" y="20" width="2" height="1" fill="#8B4513"/>
    <rect x="28" y="20" width="2" height="1" fill="#8B4513"/>

    <!-- Nose -->
    <rect x="23" y="22" width="2" height="2" fill="#BC9A6A"/>

    <!-- Traditional bisht (outer cloak) -->
    <rect x="10" y="32" width="28" height="16" fill="#8B4513"/>
    <rect x="12" y="34" width="24" height="2" fill="#FFD700"/> <!-- Gold trim -->

    <!-- White thobe underneath -->
    <rect x="14" y="36" width="20" height="12" fill="#FFFFFF"/>

    <!-- Prayer beads (tasbih) -->
    <rect x="6" y="38" width="2" height="2" fill="#8B4513"/>
    <rect x="6" y="40" width="2" height="2" fill="#654321"/>
    <rect x="6" y="42" width="2" height="2" fill="#8B4513"/>
    <rect x="8" y="44" width="2" height="2" fill="#654321"/>

    <!-- Spice memory indicator -->
    <rect x="40" y="8" width="4" height="4" fill="#FF6347"/>
    <rect x="41" y="9" width="2" height="2" fill="#FFD700"/> <!-- Star anise shape -->
</svg>
