<svg width="48" height="48" viewBox="0 0 48 48" xmlns="http://www.w3.org/2000/svg">
    <!-- Bob - Middle-aged Bahraini man who loves Chinese and Mexican food -->

    <!-- Ghutra (traditional headwear) -->
    <rect x="10" y="6" width="28" height="18" fill="#FFFFFF"/>
    <rect x="8" y="10" width="32" height="10" fill="#FFFFFF"/>
    <!-- Pattern on ghutra -->
    <rect x="12" y="8" width="2" height="2" fill="#FF0000"/>
    <rect x="16" y="8" width="2" height="2" fill="#FF0000"/>
    <rect x="20" y="8" width="2" height="2" fill="#FF0000"/>
    <rect x="24" y="8" width="2" height="2" fill="#FF0000"/>
    <rect x="28" y="8" width="2" height="2" fill="#FF0000"/>
    <rect x="32" y="8" width="2" height="2" fill="#FF0000"/>

    <!-- Iqal (headband) -->
    <rect x="12" y="12" width="24" height="3" fill="#000000"/>

    <!-- Face -->
    <rect x="16" y="16" width="16" height="12" fill="#D2B48C"/>

    <!-- Beard -->
    <rect x="14" y="24" width="20" height="8" fill="#654321"/>
    <rect x="16" y="28" width="16" height="4" fill="#8B4513"/>

    <!-- Eyes -->
    <rect x="18" y="18" width="2" height="2" fill="#2F4F4F"/>
    <rect x="28" y="18" width="2" height="2" fill="#2F4F4F"/>

    <!-- Nose -->
    <rect x="23" y="22" width="2" height="2" fill="#BC9A6A"/>

    <!-- Mouth (puzzled) -->
    <rect x="22" y="24" width="4" height="2" fill="#8B4513"/>

    <!-- Thobe (traditional robe) -->
    <rect x="12" y="32" width="24" height="16" fill="#F5F5DC"/>
    <rect x="14" y="34" width="20" height="2" fill="#8B4513"/> <!-- Collar detail -->

    <!-- Arms -->
    <rect x="8" y="36" width="4" height="8" fill="#D2B48C"/>
    <rect x="36" y="36" width="4" height="8" fill="#D2B48C"/>

    <!-- Confusion swirls -->
    <rect x="40" y="8" width="2" height="2" fill="#FFB6C1"/>
    <rect x="42" y="10" width="2" height="2" fill="#FFB6C1"/>
    <rect x="40" y="12" width="2" height="2" fill="#FFB6C1"/>
    <rect x="38" y="10" width="2" height="2" fill="#FFB6C1"/>
</svg>
