<svg width="64" height="64" viewBox="0 0 64 64" xmlns="http://www.w3.org/2000/svg">
    <!-- El Sombrero Mexican Restaurant with Bahraini elements -->

    <!-- Building base -->
    <rect x="8" y="24" width="48" height="32" fill="#F4A460"/>

    <!-- Adobe-style with Islamic influences -->
    <rect x="6" y="20" width="52" height="4" fill="#CD853F"/>

    <!-- Stepped facade (Bahraini fort style) -->
    <rect x="10" y="16" width="12" height="4" fill="#DEB887"/>
    <rect x="42" y="16" width="12" height="4" fill="#DEB887"/>
    <rect x="26" y="12" width="12" height="8" fill="#DEB887"/>

    <!-- Mexican arched entrance -->
    <rect x="24" y="32" width="16" height="24" fill="#8B4513"/>
    <rect x="26" y="28" width="12" height="4" fill="#FF6347"/>
    <rect x="28" y="24" width="8" height="4" fill="#FF6347"/>

    <!-- Wooden door with Mexican details -->
    <rect x="28" y="40" width="8" height="16" fill="#654321"/>
    <rect x="30" y="42" width="4" height="12" fill="#8B4513"/>
    <!-- Mexican sun symbol on door -->
    <rect x="31" y="46" width="2" height="2" fill="#FFD700"/>
    <rect x="30" y="47" width="4" height="1" fill="#FFD700"/>
    <rect x="31" y="48" width="2" height="1" fill="#FFD700"/>

    <!-- Windows with colorful frames -->
    <rect x="12" y="32" width="8" height="8" fill="#228B22"/> <!-- Green frame -->
    <rect x="13" y="33" width="6" height="6" fill="#87CEEB"/>
    <rect x="14" y="34" width="4" height="4" fill="#FFFFFF"/>
    <!-- Window pattern -->
    <rect x="15" y="35" width="2" height="2" fill="#FF69B4"/>

    <rect x="44" y="32" width="8" height="8" fill="#DC143C"/> <!-- Red frame -->
    <rect x="45" y="33" width="6" height="6" fill="#87CEEB"/>
    <rect x="46" y="34" width="4" height="4" fill="#FFFFFF"/>
    <rect x="47" y="35" width="2" height="2" fill="#FFD700"/>

    <!-- Colorful papel picado (Mexican banners) -->
    <rect x="16" y="20" width="2" height="4" fill="#FF69B4"/>
    <rect x="20" y="20" width="2" height="4" fill="#32CD32"/>
    <rect x="24" y="20" width="2" height="4" fill="#FFD700"/>
    <rect x="38" y="20" width="2" height="4" fill="#FF6347"/>
    <rect x="42" y="20" width="2" height="4" fill="#8A2BE2"/>
    <rect x="46" y="20" width="2" height="4" fill="#00CED1"/>

    <!-- Banner strings -->
    <rect x="16" y="18" width="32" height="1" fill="#8B4513"/>

    <!-- Cactus decorations (adapted for Gulf) -->
    <rect x="4" y="44" width="2" height="8" fill="#228B22"/>
    <rect x="3" y="46" width="4" height="2" fill="#228B22"/>
    <rect x="5" y="44" width="1" height="1" fill="#FF6347"/> <!-- Flower -->

    <rect x="58" y="40" width="2" height="12" fill="#228B22"/>
    <rect x="57" y="44" width="4" height="2" fill="#228B22"/>
    <rect x="59" y="42" width="1" height="1" fill="#FFD700"/>

    <!-- Sombrero sign -->
    <rect x="22" y="4" width="20" height="8" fill="#8B4513"/>
    <rect x="24" y="6" width="16" height="4" fill="#FFD700"/>
    <!-- Hat brim -->
    <rect x="20" y="8" width="24" height="2" fill="#654321"/>
    <!-- Hat crown -->
    <rect x="28" y="2" width="8" height="6" fill="#8B4513"/>
    <rect x="30" y="0" width="4" height="2" fill="#8B4513"/>

    <!-- Mexican tile pattern at base -->
    <rect x="10" y="48" width="44" height="4" fill="#FF6347"/>
    <rect x="12" y="49" width="2" height="2" fill="#FFFFFF"/>
    <rect x="16" y="49" width="2" height="2" fill="#228B22"/>
    <rect x="20" y="49" width="2" height="2" fill="#FFD700"/>
    <rect x="24" y="49" width="2" height="2" fill="#8A2BE2"/>
    <rect x="28" y="49" width="2" height="2" fill="#FF69B4"/>
    <rect x="32" y="49" width="2" height="2" fill="#00CED1"/>
    <rect x="36" y="49" width="2" height="2" fill="#FFFFFF"/>
    <rect x="40" y="49" width="2" height="2" fill="#228B22"/>
    <rect x="44" y="49" width="2" height="2" fill="#FFD700"/>
    <rect x="48" y="49" width="2" height="2" fill="#FF6347"/>

    <!-- Islamic geometric accent -->
    <rect x="8" y="24" width="48" height="1" fill="#FFD700"/>
    <rect x="10" y="25" width="2" height="1" fill="#8B0000"/>
    <rect x="14" y="25" width="2" height="1" fill="#8B0000"/>
    <rect x="48" y="25" width="2" height="1" fill="#8B0000"/>
    <rect x="52" y="25" width="2" height="1" fill="#8B0000"/>

    <!-- Ground -->
    <rect x="6" y="56" width="52" height="8" fill="#DEB887"/>
    <rect x="8" y="58" width="48" height="4" fill="#CD853F"/>
</svg>
