<svg width="48" height="48" viewBox="0 0 48 48" xmlns="http://www.w3.org/2000/svg">
    <!-- Alice - Young Bahraini woman who loves Italian food -->

    <!-- Hijab/Head covering -->
    <rect x="12" y="8" width="24" height="16" fill="#800080"/>
    <rect x="8" y="12" width="32" height="8" fill="#800080"/>

    <!-- Face -->
    <rect x="16" y="16" width="16" height="12" fill="#DEB887"/>

    <!-- Eyes -->
    <rect x="18" y="18" width="2" height="2" fill="#654321"/>
    <rect x="28" y="18" width="2" height="2" fill="#654321"/>

    <!-- Eyebrows -->
    <rect x="17" y="16" width="4" height="1" fill="#8B4513"/>
    <rect x="27" y="16" width="4" height="1" fill="#8B4513"/>

    <!-- Nose -->
    <rect x="23" y="22" width="2" height="2" fill="#CD853F"/>

    <!-- Mouth (confused expression) -->
    <rect x="21" y="24" width="6" height="2" fill="#8B0000"/>
    <rect x="22" y="25" width="4" height="1" fill="#CD853F"/>

    <!-- Traditional dress (Thobe) -->
    <rect x="12" y="28" width="24" height="16" fill="#4B0082"/>
    <rect x="14" y="30" width="20" height="2" fill="#FFD700"/> <!-- Gold embroidery -->
    <rect x="14" y="34" width="20" height="2" fill="#FFD700"/>
    <rect x="14" y="38" width="20" height="2" fill="#FFD700"/>

    <!-- Arms -->
    <rect x="8" y="32" width="4" height="8" fill="#DEB887"/>
    <rect x="36" y="32" width="4" height="8" fill="#DEB887"/>

    <!-- Confusion indicator (question marks) -->
    <rect x="4" y="8" width="2" height="6" fill="#FF6347"/>
    <rect x="5" y="6" width="2" height="2" fill="#FF6347"/>
    <rect x="5" y="16" width="2" height="2" fill="#FF6347"/>

    <!-- Traditional jewelry -->
    <rect x="18" y="28" width="2" height="2" fill="#FFD700"/>
    <rect x="28" y="28" width="2" height="2" fill="#FFD700"/>
</svg>
