<svg width="48" height="48" viewBox="0 0 48 48" xmlns="http://www.w3.org/2000/svg">
    <!-- Chen Wei - Chinese restaurant owner in Bahrain -->

    <!-- Hair -->
    <rect x="14" y="8" width="20" height="8" fill="#2F4F4F"/>
    <rect x="12" y="12" width="24" height="4" fill="#2F4F4F"/>

    <!-- Face -->
    <rect x="16" y="16" width="16" height="12" fill="#F5DEB3"/>

    <!-- Eyes -->
    <rect x="18" y="18" width="3" height="2" fill="#8B4513"/>
    <rect x="27" y="18" width="3" height="2" fill="#8B4513"/>

    <!-- Nose -->
    <rect x="23" y="22" width="2" height="2" fill="#DEB887"/>

    <!-- Mouth -->
    <rect x="22" y="24" width="4" height="2" fill="#8B0000"/>

    <!-- Traditional Chinese collar -->
    <rect x="14" y="28" width="20" height="16" fill="#8B0000"/>
    <rect x="16" y="30" width="16" height="2" fill="#FFD700"/> <!-- Gold trim -->

    <!-- Mandarin collar detail -->
    <rect x="20" y="28" width="8" height="4" fill="#DC143C"/>
    <rect x="21" y="29" width="6" height="2" fill="#FFD700"/>

    <!-- Arms -->
    <rect x="10" y="32" width="4" height="8" fill="#F5DEB3"/>
    <rect x="34" y="32" width="4" height="8" fill="#F5DEB3"/>

    <!-- Chinese knot buttons -->
    <rect x="18" y="34" width="2" height="2" fill="#FFD700"/>
    <rect x="18" y="38" width="2" height="2" fill="#FFD700"/>
    <rect x="28" y="34" width="2" height="2" fill="#FFD700"/>
    <rect x="28" y="38" width="2" height="2" fill="#FFD700"/>

    <!-- Cooking utensils -->
    <rect x="6" y="30" width="2" height="10" fill="#8B4513"/> <!-- Chopsticks -->
    <rect x="8" y="30" width="1" height="10" fill="#8B4513"/>

    <!-- Wok -->
    <rect x="40" y="36" width="6" height="3" fill="#2F2F2F"/>
    <rect x="41" y="35" width="4" height="1" fill="#2F2F2F"/>
    <rect x="42" y="37" width="2" height="1" fill="#FF6347"/> <!-- Food inside -->

    <!-- Steam lines -->
    <rect x="42" y="32" width="1" height="2" fill="#E0E0E0"/>
    <rect x="44" y="31" width="1" height="3" fill="#E0E0E0"/>
    <rect x="40" y="33" width="1" height="2" fill="#E0E0E0"/>

    <!-- Chinese symbol on apron -->
    <rect x="22" y="36" width="4" height="6" fill="#FFD700"/>
    <rect x="23" y="37" width="2" height="1" fill="#8B0000"/>
    <rect x="23" y="39" width="2" height="1" fill="#8B0000"/>
    <rect x="24" y="38" width="2" height="1" fill="#8B0000"/>
</svg>
